<?xml version="1.0" encoding="UTF-8"?>
<!DOCTYPE svg PUBLIC "-//W3C//DTD SVG 1.1//EN" "http://www.w3.org/Graphics/SVG/1.1/DTD/svg11.dtd">
<svg version="1.1" xmlns="http://www.w3.org/2000/svg" xmlns:xlink="http://www.w3.org/1999/xlink" width="24" height="24"  xml:space="preserve" id="actualMedicinalProduct">
    <!-- Generated by PaintCode - http://www.paintcodeapp.com -->
    <g id="actualMedicinalProduct-group3" transform="" >
        <g id="actualMedicinalProduct-group2">
            <path id="actualMedicinalProduct-rectangle3" stroke="none" fill="rgb(94, 111, 101)" d="M 12.12,18.42 L 23,12.82 14.63,5 4.17,11.01 12.12,18.42 Z M 12.12,18.42" />
            <g id="actualMedicinalProduct-group">
                <path id="actualMedicinalProduct-bezier" stroke="rgb(34, 11, 91)" stroke-width="0.25" stroke-linecap="round" stroke-linejoin="round" stroke-miterlimit="10" fill="rgb(255, 255, 255)" d="M 1,12.73 C 1,12.5 5.75,18.5 6.93,18.5 8.12,18.5 19.75,11.12 19.75,11.12 L 14.53,6.5 C 14.53,6.5 1,12.96 1,12.73 Z M 1,12.73" />
                <g id="actualMedicinalProduct-group6" transform="translate(5.75, 12.67) rotate(8.93) scale(0.33, 0.24)" >
                    <g id="actualMedicinalProduct-group7" transform="translate(0.5, -0.5) rotate(-45)" >
                        <path id="actualMedicinalProduct-rectangle4" stroke="none" fill="rgb(34, 11, 91)" d="M -9.5,-0 C -9.5,2.35 -7.6,4.25 -5.25,4.25 L 5.25,4.25 C 7.6,4.25 9.5,2.35 9.5,-0 9.5,-2.35 7.6,-4.25 5.25,-4.25 L -5.25,-4.25 C -7.6,-4.25 -9.5,-2.35 -9.5,-0 Z M -10.5,-0 C -10.5,-2.9 -8.15,-5.25 -5.25,-5.25 L 5.25,-5.25 C 8.15,-5.25 10.5,-2.9 10.5,-0 10.5,2.9 8.15,5.25 5.25,5.25 L -5.25,5.25 C -8.15,5.25 -10.5,2.9 -10.5,-0 Z M -10.5,-0" />
                        <path id="actualMedicinalProduct-bezier3" stroke="none" fill="rgb(34, 11, 91)" d="M 0.52,-2.5 L 0.52,3 0.02,3.5 C -0.28,3.5 -0.28,3.5 -1.53,3.5 -3.09,3.5 -3.09,3.5 -4.98,3.5 -6.21,3.5 -7.13,2.89 -7.76,1.9 -7.91,1.67 -7.84,1.36 -7.61,1.21 -7.37,1.06 -7.07,1.13 -6.92,1.37 -6.46,2.09 -5.84,2.5 -4.98,2.5 -3.09,2.5 -3.09,2.5 -1.53,2.5 -0.28,2.5 -0.28,2.5 0.02,2.5 L -0.48,3 -0.48,-2.5 C -0.48,-2.78 -0.25,-3 0.02,-3 0.3,-3 0.52,-2.78 0.52,-2.5 Z M 0.52,-2.5" />
                    </g>
                </g>
                <g id="actualMedicinalProduct-group8" transform="translate(8.12, 15.19) rotate(8.93) scale(0.33, 0.24)" >
                    <g id="actualMedicinalProduct-group9" transform="translate(0.5, -0.5) rotate(-45)" >
                        <path id="actualMedicinalProduct-rectangle5" stroke="none" fill="rgb(34, 11, 91)" d="M -9.5,-0 C -9.5,2.35 -7.6,4.25 -5.25,4.25 L 5.25,4.25 C 7.6,4.25 9.5,2.35 9.5,-0 9.5,-2.35 7.6,-4.25 5.25,-4.25 L -5.25,-4.25 C -7.6,-4.25 -9.5,-2.35 -9.5,-0 Z M -10.5,-0 C -10.5,-2.9 -8.15,-5.25 -5.25,-5.25 L 5.25,-5.25 C 8.15,-5.25 10.5,-2.9 10.5,-0 10.5,2.9 8.15,5.25 5.25,5.25 L -5.25,5.25 C -8.15,5.25 -10.5,2.9 -10.5,-0 Z M -10.5,-0" />
                        <path id="actualMedicinalProduct-bezier4" stroke="none" fill="rgb(34, 11, 91)" d="M 0.52,-2.5 L 0.52,3 0.02,3.5 C -0.28,3.5 -0.28,3.5 -1.53,3.5 -3.09,3.5 -3.09,3.5 -4.98,3.5 -6.21,3.5 -7.13,2.89 -7.76,1.9 -7.91,1.67 -7.84,1.36 -7.61,1.21 -7.37,1.06 -7.07,1.13 -6.92,1.37 -6.46,2.09 -5.84,2.5 -4.98,2.5 -3.09,2.5 -3.09,2.5 -1.53,2.5 -0.28,2.5 -0.28,2.5 0.02,2.5 L -0.48,3 -0.48,-2.5 C -0.48,-2.78 -0.25,-3 0.02,-3 0.3,-3 0.52,-2.78 0.52,-2.5 Z M 0.52,-2.5" />
                    </g>
                </g>
            </g>
            <path id="actualMedicinalProduct-bezier2" stroke="none" fill="rgb(94, 111, 101)" d="M 4.17,9.29 L 6.26,10.37 4.17,11.01 4.17,9.29 Z M 4.17,9.29" />
            <path id="actualMedicinalProduct-rectangle" stroke="none" fill="rgb(207, 223, 213)" d="M 12.01,16.27 L 23,10.9 14.63,5 4.17,9.29 12.01,16.27 Z M 12.01,16.27" />
            <path id="actualMedicinalProduct-rectangle2" stroke="none" fill="rgb(132, 160, 142)" d="M 12.12,18.42 L 23,12.9 23,10.9 12.01,16.27 12.12,18.42 Z M 12.12,18.42" />
            <g id="actualMedicinalProduct-group4" transform="translate(11, 7) rotate(-31.38) scale(0.32, 0.33)" >
                <g id="actualMedicinalProduct-group5">
                    <path id="actualMedicinalProduct-interneuronEmailSignaturebezier" stroke="none" fill="rgb(34, 11, 91)" d="M -0.08,1.27 C -0.68,1.27 -1.22,1.53 -1.59,1.93 -1.91,2.29 -2.11,2.75 -2.11,3.26 -2.11,4.36 -1.2,5.25 -0.08,5.25 1.04,5.25 1.95,4.36 1.95,3.26 1.95,2.16 1.04,1.27 -0.08,1.27 Z M 2.26,3.26 C 2.26,4.53 1.21,5.56 -0.08,5.56 -1.37,5.56 -2.42,4.53 -2.42,3.26 -2.42,2.7 -2.21,2.18 -1.87,1.78 -1.44,1.28 -0.8,0.97 -0.08,0.97 1.21,0.97 2.26,1.99 2.26,3.26 Z M 2.26,3.26" />
                    <path id="actualMedicinalProduct-interneuronEmailSignaturerectangle6" stroke="none" fill="rgb(34, 11, 91)" d="M -0.34,9.12 L 0.18,9.12 0.18,8.11 C 0.18,8.11 0.18,7.6 0.18,7.09 0.18,6.58 -0.34,6.58 -0.34,7.09 -0.34,7.6 -0.34,9.12 -0.34,9.12 Z M -0.34,9.12" />
                    <path id="actualMedicinalProduct-interneuronEmailSignaturebezier3" stroke="none" fill="rgb(34, 11, 91)" d="M 3.3,4.03 C 3.16,5.74 1.7,7.09 -0.08,7.09 -1.86,7.09 -3.32,5.74 -3.46,4.03 L -3.01,4.03 C -2.87,5.49 -1.61,6.64 -0.08,6.64 1.45,6.64 2.71,5.49 2.84,4.03 L 3.3,4.03 Z M 3.3,4.03" />
                    <path id="actualMedicinalProduct-interneuronEmailSignaturerectangle7" stroke="none" fill="rgb(34, 11, 91)" d="M -0.1,23.51 C 0.25,23.51 0.68,9.85 0.68,9.85 0.68,8.55 0.33,7.5 -0.1,7.5 L -0.1,7.5 C -0.53,7.5 -0.88,8.55 -0.88,9.85 -0.88,9.85 -0.44,23.51 -0.1,23.51 Z M -0.1,23.51" />
                    <path id="actualMedicinalProduct-path4" stroke="none" fill="rgb(34, 11, 91)" d="M 1.01,22.78 C 1.46,22.05 1.27,21.5 0.36,20.83 0.28,20.77 0.09,20.63 -0.07,20.51 -0.24,20.39 -0.46,20.17 -0.57,20.02 -0.75,19.77 -0.77,19.69 -0.75,19.33 L -0.73,18.93 -1.03,18.75 C -1.19,18.65 -1.38,18.57 -1.44,18.57 -1.75,18.58 -1.88,19.47 -1.66,19.97 -1.44,20.45 -0.78,20.99 -0.09,21.25 0.27,21.39 0.69,21.81 0.75,22.1 0.8,22.35 0.78,22.7 0.68,23.04 0.64,23.19 0.65,23.2 0.75,23.11 0.82,23.06 0.93,22.91 1.01,22.78 Z M 1.01,22.78" />
                    <path id="actualMedicinalProduct-path5" stroke="none" fill="rgb(34, 11, 91)" d="M -1.03,22.73 C -1.1,22.26 -1.03,21.96 -0.82,21.73 -0.61,21.5 -0.64,21.35 -0.91,21.29 -1.07,21.26 -1.14,21.29 -1.27,21.45 -1.42,21.63 -1.44,21.71 -1.4,22.12 -1.37,22.43 -1.31,22.65 -1.2,22.82 -1.11,22.96 -1.02,23.07 -1.01,23.07 -1,23.07 -1.01,22.92 -1.03,22.73 Z M -1.03,22.73" />
                    <path id="actualMedicinalProduct-path6" stroke="none" fill="rgb(34, 11, 91)" d="M 1.04,20.48 C 1.41,20.15 1.58,19.76 1.58,19.31 1.56,18.65 1.13,18.09 0.23,17.57 -0.29,17.27 -0.8,16.86 -0.93,16.61 -1.1,16.32 -1.07,15.85 -0.88,15.57 -0.69,15.28 -0.68,15.29 -1.33,14.91 -1.77,14.65 -1.8,14.66 -2.09,15.2 -2.36,15.71 -2.38,16.23 -2.16,16.86 -2.02,17.27 -1.92,17.42 -1.55,17.78 -1.28,18.04 -0.93,18.29 -0.65,18.42 0.23,18.83 0.67,19.37 0.42,19.75 0.36,19.85 0.31,20.07 0.32,20.26 0.33,20.83 0.58,20.91 1.04,20.48 Z M 1.04,20.48" />
                    <path id="actualMedicinalProduct-path9" stroke="none" fill="rgb(34, 11, 91)" d="M 1.39,17.71 C 1.89,17.4 2.18,16.85 2.21,16.17 2.23,15.71 2.22,15.62 2.01,15.23 1.88,15 1.71,14.74 1.62,14.66 1.38,14.46 0.34,13.8 0.05,13.67 -0.09,13.6 -0.41,13.42 -0.65,13.27 -1.04,13.03 -1.13,12.94 -1.25,12.63 -1.5,12.03 -1.46,11.62 -1.12,11.25 -0.93,11.03 -1,10.92 -1.47,10.7 L -1.88,10.51 -2.12,10.79 C -2.5,11.23 -2.62,11.59 -2.61,12.24 -2.6,12.71 -2.57,12.85 -2.37,13.23 -2.11,13.74 -1.62,14.22 -1.03,14.54 -0.13,15.03 0.6,15.52 0.74,15.72 0.81,15.84 0.87,16.05 0.88,16.2 0.88,16.47 0.7,16.92 0.51,17.08 0.32,17.23 0.39,17.41 0.71,17.62 1.08,17.86 1.13,17.87 1.39,17.71 Z M 1.39,17.71" />
                    <path id="actualMedicinalProduct-path13" stroke="none" fill="rgb(34, 11, 91)" d="M 1.68,13.77 C 2.27,13.34 2.54,12.77 2.53,11.99 2.53,11.67 2.49,11.46 2.38,11.27 2.25,11.01 1.63,10.34 1.53,10.34 1.5,10.35 1.27,10.23 1.02,10.08 0.76,9.93 0.18,9.71 -0.29,9.57 -1.25,9.3 -1.88,8.97 -2.21,8.59 -2.38,8.39 -2.44,8.25 -2.47,7.92 -2.51,7.49 -2.45,7.42 -2.25,7.64 -1.95,7.94 -1.24,7.84 -0.94,7.45 -0.79,7.25 -0.8,7.1 -0.99,7.03 -1.52,6.83 -2.13,6.91 -2.6,7.23 -3.19,7.65 -3.35,8.33 -3,8.96 -2.67,9.56 -2.21,9.88 -0.67,10.59 0.64,11.19 0.87,11.33 1.08,11.64 1.36,12.07 1.2,12.74 0.71,13.19 0.44,13.44 0.41,13.55 0.6,13.7 0.77,13.84 1.13,14.02 1.25,14.02 1.31,14.02 1.5,13.91 1.68,13.77 Z M 1.68,13.77" />
                    <path id="actualMedicinalProduct-path14" stroke="none" fill="rgb(34, 11, 91)" d="M -1.94,7.25 C -2.03,7.17 -1.92,7.08 -1.71,7.08 -1.6,7.08 -1.5,7.11 -1.5,7.15 -1.5,7.18 -1.55,7.22 -1.6,7.22 -1.66,7.22 -1.75,7.24 -1.8,7.26 -1.85,7.28 -1.92,7.27 -1.94,7.25 Z M -1.94,7.25" />
                    <path id="actualMedicinalProduct-path18" stroke="none" fill="rgb(34, 11, 91)" d="M 1.77,9.98 C 2.44,9.63 3,8.81 3.05,8.13 3.07,7.75 3.06,7.7 2.84,7.45 2.49,7.02 2.11,6.85 1.59,6.85 1.12,6.86 0.75,7 0.72,7.19 0.71,7.25 0.79,7.4 0.91,7.52 1.09,7.72 1.17,7.75 1.54,7.77 1.92,7.79 1.99,7.77 2.18,7.6 2.3,7.5 2.42,7.42 2.44,7.42 2.5,7.42 2.42,7.98 2.34,8.15 2.09,8.65 1.45,9.19 0.87,9.38 0.51,9.51 0.55,9.64 1.04,9.88 1.48,10.09 1.55,10.1 1.77,9.98 Z M 1.77,9.98" />
                    <path id="actualMedicinalProduct-path19" stroke="none" fill="rgb(34, 11, 91)" d="M 1.54,7.18 C 1.34,7.13 1.39,7.02 1.62,7.02 1.85,7.01 1.97,7.11 1.8,7.18 1.74,7.2 1.68,7.22 1.67,7.22 1.67,7.21 1.61,7.2 1.54,7.18 Z M 1.54,7.18" />
                    <path id="actualMedicinalProduct-path20" stroke="none" fill="rgb(34, 11, 91)" d="M 0.26,9.82 C 0.28,9.64 0.3,9.28 0.34,8.08 0.37,7.35 0.4,6.73 0.41,6.7 0.43,6.66 0.44,6.37 0.44,6.04 L 0.43,5.44 -0.05,5.41 C -0.32,5.39 -0.55,5.39 -0.56,5.4 -0.58,5.4 -0.57,6.37 -0.56,7.55 -0.54,9.23 -0.52,9.7 -0.45,9.73 -0.33,9.78 0.05,9.88 0.16,9.88 0.21,9.89 0.25,9.86 0.26,9.82 Z M 0.26,9.82" />
                    <path id="actualMedicinalProduct-path26" stroke="none" fill="rgb(34, 11, 91)" d="M 5.78,5.8 C 5.95,5.73 5.91,5.65 5.64,5.5 5.5,5.42 5.24,5.14 5.05,4.88 4.75,4.45 4.69,4.4 4.49,4.41 3.99,4.42 3.97,4.71 4.44,5.18 4.79,5.54 5.06,5.7 5.43,5.78 5.55,5.81 5.65,5.83 5.65,5.83 5.66,5.84 5.72,5.82 5.78,5.8 Z M 5.78,5.8" />
                    <path id="actualMedicinalProduct-path28" stroke="none" fill="rgb(34, 11, 91)" d="M 7.45,5.53 C 7.45,5.5 7.36,5.41 7.25,5.35 6.74,5.06 6.38,4.81 6.11,4.56 5.51,4 5.54,4.01 5.29,4.16 5.18,4.23 5.08,4.34 5.08,4.4 5.08,4.58 5.91,5.27 6.33,5.45 6.71,5.61 7.45,5.67 7.45,5.53 Z M 7.45,5.53" />
                    <path id="actualMedicinalProduct-path30" stroke="none" fill="rgb(34, 11, 91)" d="M 3.55,4.15 C 3.56,4.14 3.82,4.13 4.12,4.12 4.6,4.1 4.7,4.07 4.97,3.87 5.44,3.52 5.68,2.94 5.56,2.45 5.5,2.21 5.73,2.36 5.85,2.63 5.97,2.93 6.54,3.4 7.72,4.19 8.68,4.83 9.83,5.08 10.32,4.75 10.58,4.58 10.56,4.47 10.24,4.38 9.54,4.19 8.2,3.43 6.72,2.38 4.81,1.02 4.15,0.78 3.07,1.01 2.85,1.06 2.42,1.46 2.31,1.73 2.11,2.21 2.26,2.77 2.69,3.19 L 2.96,3.45 2.83,4.17 C 2.83,4.17 3.54,4.15 3.55,4.15 Z M 3.55,4.15" />
                    <path id="actualMedicinalProduct-path31" stroke="none" fill="rgb(34, 11, 91)" d="M 8.61,5.33 C 8.73,5.28 8.76,5.09 8.65,5.09 8.51,5.1 7.08,4.15 6.57,3.72 6.02,3.26 5.88,3.2 5.81,3.38 5.71,3.67 5.79,3.85 6.16,4.19 7.03,5.01 8.13,5.52 8.61,5.33 Z M 8.61,5.33" />
                    <path id="actualMedicinalProduct-path21" stroke="none" fill="rgb(34, 11, 91)" d="M -5.94,5.8 C -6.11,5.73 -6.08,5.65 -5.8,5.5 -5.67,5.42 -5.4,5.14 -5.22,4.88 -4.91,4.45 -4.85,4.4 -4.65,4.41 -4.15,4.42 -4.13,4.71 -4.6,5.18 -4.96,5.54 -5.23,5.7 -5.59,5.78 -5.71,5.81 -5.81,5.83 -5.82,5.83 -5.82,5.84 -5.88,5.82 -5.94,5.8 Z M -5.94,5.8" />
                    <path id="actualMedicinalProduct-path22" stroke="none" fill="rgb(34, 11, 91)" d="M -7.61,5.53 C -7.61,5.5 -7.52,5.41 -7.41,5.35 -6.9,5.06 -6.54,4.81 -6.27,4.56 -5.68,4 -5.7,4.01 -5.46,4.16 -5.34,4.23 -5.24,4.34 -5.24,4.4 -5.25,4.58 -6.07,5.27 -6.49,5.45 -6.87,5.61 -7.61,5.67 -7.61,5.53 Z M -7.61,5.53" />
                    <path id="actualMedicinalProduct-path23" stroke="none" fill="rgb(34, 11, 91)" d="M -3.71,4.15 C -3.73,4.14 -3.98,4.13 -4.28,4.12 -4.77,4.1 -4.86,4.07 -5.13,3.87 -5.6,3.52 -5.85,2.94 -5.72,2.45 -5.66,2.21 -5.9,2.36 -6.01,2.63 -6.13,2.93 -6.7,3.4 -7.88,4.19 -8.84,4.83 -9.99,5.08 -10.48,4.75 -10.75,4.58 -10.72,4.47 -10.4,4.38 -9.71,4.19 -8.36,3.43 -6.88,2.38 -4.97,1.02 -4.31,0.78 -3.24,1.01 -3.01,1.06 -2.58,1.46 -2.47,1.73 -2.28,2.21 -2.42,2.77 -2.85,3.19 L -3.12,3.45 -2.99,4.17 C -2.99,4.17 -3.7,4.15 -3.71,4.15 Z M -3.71,4.15" />
                    <path id="actualMedicinalProduct-path24" stroke="none" fill="rgb(34, 11, 91)" d="M -8.77,5.33 C -8.89,5.28 -8.93,5.09 -8.81,5.09 -8.68,5.1 -7.25,4.15 -6.73,3.72 -6.18,3.26 -6.05,3.2 -5.98,3.38 -5.87,3.67 -5.95,3.85 -6.32,4.19 -7.19,5.01 -8.29,5.52 -8.77,5.33 Z M -8.77,5.33" />
                </g>
            </g>
        </g>
    </g>
</svg>
