<?xml version="1.0" encoding="UTF-8"?>
<!DOCTYPE svg PUBLIC "-//W3C//DTD SVG 1.1//EN" "http://www.w3.org/Graphics/SVG/1.1/DTD/svg11.dtd">
<svg version="1.1" xmlns="http://www.w3.org/2000/svg" xmlns:xlink="http://www.w3.org/1999/xlink" width="24" height="24"  xml:space="preserve" id="tabletCapsule">
    <!-- Generated by PaintCode - http://www.paintcodeapp.com -->
    <g id="tabletCapsule-group2" transform="" >
        <g id="tabletCapsule-group" transform="translate(12.5, 11.5) rotate(-45)" >
            <path id="tabletCapsule-rectangle" stroke="none" fill="rgb(34, 11, 91)" d="M -9.5,-0 C -9.5,2.35 -7.6,4.25 -5.25,4.25 L 5.25,4.25 C 7.6,4.25 9.5,2.35 9.5,-0 9.5,-2.35 7.6,-4.25 5.25,-4.25 L -5.25,-4.25 C -7.6,-4.25 -9.5,-2.35 -9.5,-0 Z M -10.5,-0 C -10.5,-2.9 -8.15,-5.25 -5.25,-5.25 L 5.25,-5.25 C 8.15,-5.25 10.5,-2.9 10.5,-0 10.5,2.9 8.15,5.25 5.25,5.25 L -5.25,5.25 C -8.15,5.25 -10.5,2.9 -10.5,-0 Z M -10.5,-0" />
            <path id="tabletCapsule-bezier2" stroke="none" fill="rgb(34, 11, 91)" d="M 0.52,-2.5 L 0.52,3 0.02,3.5 C -0.28,3.5 -0.28,3.5 -1.53,3.5 -3.09,3.5 -3.09,3.5 -4.98,3.5 -6.21,3.5 -7.13,2.89 -7.76,1.9 -7.91,1.67 -7.84,1.36 -7.61,1.21 -7.37,1.06 -7.07,1.13 -6.92,1.37 -6.46,2.09 -5.84,2.5 -4.98,2.5 -3.09,2.5 -3.09,2.5 -1.53,2.5 -0.28,2.5 -0.28,2.5 0.02,2.5 L -0.48,3 -0.48,-2.5 C -0.48,-2.78 -0.25,-3 0.02,-3 0.3,-3 0.52,-2.78 0.52,-2.5 Z M 0.52,-2.5" />
        </g>
    </g>
</svg>
