<?xml version="1.0" encoding="UTF-8"?>
<!DOCTYPE svg PUBLIC "-//W3C//DTD SVG 1.1//EN" "http://www.w3.org/Graphics/SVG/1.1/DTD/svg11.dtd">
<svg version="1.1" xmlns="http://www.w3.org/2000/svg" xmlns:xlink="http://www.w3.org/1999/xlink" width="24" height="24"  xml:space="preserve" id="medicationTypeNotDefined">
    <!-- Generated by PaintCode - http://www.paintcodeapp.com -->
    <g id="medicationTypeNotDefined-group2" transform="" >
        <g id="medicationTypeNotDefined-group">
            <path id="medicationTypeNotDefined-interneuronEmailSignaturebezier" stroke="none" fill="rgb(34, 11, 91)" d="M 12.08,1.09 C 11.49,1.09 10.95,1.34 10.58,1.75 10.25,2.1 10.06,2.57 10.06,3.08 10.06,4.17 10.97,5.07 12.08,5.07 13.2,5.07 14.11,4.17 14.11,3.08 14.11,1.98 13.2,1.09 12.08,1.09 Z M 14.42,3.08 C 14.42,4.35 13.38,5.37 12.08,5.37 10.79,5.37 9.75,4.35 9.75,3.08 9.75,2.52 9.95,2 10.3,1.6 10.72,1.1 11.37,0.78 12.08,0.78 13.38,0.78 14.42,1.81 14.42,3.08 Z M 14.42,3.08" />
            <path id="medicationTypeNotDefined-interneuronEmailSignaturerectangle6" stroke="none" fill="rgb(34, 11, 91)" d="M 11.82,8.94 L 12.34,8.94 12.34,7.92 C 12.34,7.92 12.34,7.41 12.34,6.9 12.34,6.39 11.82,6.39 11.82,6.9 11.82,7.41 11.82,8.94 11.82,8.94 Z M 11.82,8.94" />
            <path id="medicationTypeNotDefined-interneuronEmailSignaturebezier3" stroke="none" fill="rgb(34, 11, 91)" d="M 15.46,3.84 C 15.33,5.56 13.87,6.9 12.08,6.9 10.3,6.9 8.84,5.56 8.71,3.84 L 9.16,3.84 C 9.29,5.31 10.55,6.46 12.08,6.46 13.62,6.46 14.87,5.31 15.01,3.84 L 15.46,3.84 Z M 15.46,3.84" />
            <path id="medicationTypeNotDefined-interneuronEmailSignaturerectangle7" stroke="none" fill="rgb(34, 11, 91)" d="M 12.07,23.33 C 12.42,23.33 12.85,9.66 12.85,9.66 12.85,8.37 12.5,7.32 12.07,7.32 L 12.07,7.32 C 11.64,7.32 11.29,8.37 11.29,9.66 11.29,9.66 11.72,23.33 12.07,23.33 Z M 12.07,23.33" />
            <path id="medicationTypeNotDefined-path4" stroke="none" fill="rgb(34, 11, 91)" d="M 13.18,22.59 C 13.62,21.87 13.44,21.32 12.52,20.64 12.45,20.59 12.25,20.45 12.09,20.33 11.93,20.21 11.71,19.99 11.59,19.83 11.41,19.59 11.39,19.51 11.41,19.15 L 11.43,18.74 11.13,18.57 C 10.97,18.47 10.78,18.39 10.72,18.39 10.42,18.4 10.28,19.29 10.51,19.79 10.72,20.27 11.39,20.81 12.08,21.07 12.43,21.2 12.85,21.63 12.91,21.92 12.97,22.17 12.94,22.52 12.85,22.85 12.8,23.01 12.81,23.02 12.92,22.93 12.98,22.88 13.1,22.73 13.18,22.59 Z M 13.18,22.59" />
            <path id="medicationTypeNotDefined-path5" stroke="none" fill="rgb(34, 11, 91)" d="M 11.13,22.55 C 11.07,22.08 11.13,21.78 11.35,21.54 11.55,21.32 11.52,21.17 11.25,21.11 11.09,21.07 11.03,21.1 10.89,21.27 10.74,21.45 10.73,21.53 10.76,21.93 10.79,22.25 10.85,22.47 10.97,22.64 11.05,22.78 11.14,22.89 11.15,22.89 11.17,22.89 11.16,22.73 11.13,22.55 Z M 11.13,22.55" />
            <path id="medicationTypeNotDefined-path6" stroke="none" fill="rgb(34, 11, 91)" d="M 13.21,20.3 C 13.57,19.97 13.75,19.58 13.74,19.13 13.73,18.47 13.3,17.91 12.39,17.39 11.87,17.09 11.37,16.67 11.23,16.43 11.07,16.13 11.09,15.67 11.28,15.38 11.48,15.09 11.48,15.1 10.83,14.72 10.39,14.47 10.36,14.48 10.08,15.01 9.81,15.52 9.78,16.05 10,16.68 10.15,17.09 10.25,17.24 10.62,17.59 10.89,17.85 11.24,18.1 11.51,18.23 12.4,18.65 12.83,19.19 12.59,19.57 12.52,19.67 12.48,19.88 12.48,20.07 12.49,20.64 12.75,20.72 13.21,20.3 Z M 13.21,20.3" />
            <path id="medicationTypeNotDefined-path9" stroke="none" fill="rgb(34, 11, 91)" d="M 13.56,17.52 C 14.05,17.22 14.35,16.67 14.38,15.98 14.4,15.53 14.38,15.44 14.17,15.05 14.05,14.81 13.87,14.56 13.78,14.48 13.54,14.28 12.51,13.62 12.21,13.48 12.07,13.42 11.76,13.24 11.51,13.09 11.12,12.85 11.04,12.76 10.91,12.45 10.67,11.85 10.71,11.44 11.05,11.06 11.24,10.85 11.17,10.74 10.7,10.52 L 10.29,10.33 10.04,10.61 C 9.67,11.05 9.54,11.41 9.55,12.05 9.56,12.53 9.6,12.67 9.79,13.05 10.05,13.56 10.54,14.04 11.14,14.36 12.04,14.85 12.77,15.34 12.9,15.54 12.98,15.66 13.04,15.87 13.04,16.01 13.05,16.29 12.86,16.74 12.67,16.9 12.49,17.05 12.55,17.23 12.88,17.44 13.24,17.68 13.3,17.69 13.56,17.52 Z M 13.56,17.52" />
            <path id="medicationTypeNotDefined-path13" stroke="none" fill="rgb(34, 11, 91)" d="M 13.85,13.59 C 14.43,13.15 14.7,12.59 14.7,11.81 14.69,11.49 14.65,11.28 14.55,11.09 14.41,10.83 13.79,10.16 13.69,10.16 13.66,10.16 13.43,10.04 13.18,9.9 12.92,9.75 12.35,9.53 11.87,9.39 10.92,9.11 10.28,8.79 9.96,8.41 9.78,8.21 9.73,8.07 9.7,7.74 9.66,7.31 9.71,7.24 9.92,7.45 10.21,7.76 10.92,7.65 11.22,7.27 11.38,7.06 11.36,6.92 11.17,6.85 10.65,6.65 10.03,6.73 9.57,7.05 8.97,7.46 8.82,8.14 9.16,8.78 9.49,9.37 9.95,9.69 11.5,10.41 12.8,11.01 13.04,11.15 13.24,11.46 13.52,11.89 13.37,12.56 12.88,13.01 12.6,13.26 12.58,13.37 12.76,13.52 12.93,13.66 13.3,13.83 13.42,13.84 13.47,13.84 13.66,13.73 13.85,13.59 Z M 13.85,13.59" />
            <path id="medicationTypeNotDefined-path14" stroke="none" fill="rgb(34, 11, 91)" d="M 10.22,7.07 C 10.13,6.98 10.24,6.9 10.45,6.9 10.57,6.9 10.66,6.92 10.66,6.96 10.66,7 10.62,7.03 10.56,7.03 10.51,7.03 10.42,7.05 10.37,7.07 10.31,7.1 10.25,7.09 10.22,7.07 Z M 10.22,7.07" />
            <path id="medicationTypeNotDefined-path18" stroke="none" fill="rgb(34, 11, 91)" d="M 13.94,9.8 C 14.61,9.45 15.17,8.63 15.21,7.95 15.24,7.57 15.22,7.52 15.01,7.26 14.65,6.84 14.27,6.66 13.76,6.67 13.29,6.68 12.91,6.82 12.88,7 12.87,7.07 12.96,7.22 13.07,7.34 13.26,7.53 13.34,7.56 13.71,7.58 14.08,7.6 14.15,7.59 14.35,7.42 14.46,7.32 14.58,7.24 14.61,7.24 14.67,7.23 14.58,7.79 14.5,7.97 14.25,8.46 13.61,9 13.03,9.2 12.67,9.32 12.72,9.45 13.2,9.69 13.64,9.91 13.72,9.92 13.94,9.8 Z M 13.94,9.8" />
            <path id="medicationTypeNotDefined-path19" stroke="none" fill="rgb(34, 11, 91)" d="M 13.7,7 C 13.5,6.95 13.56,6.84 13.78,6.84 14.02,6.83 14.13,6.93 13.96,7 13.9,7.02 13.85,7.04 13.84,7.03 13.83,7.03 13.77,7.01 13.7,7 Z M 13.7,7" />
            <path id="medicationTypeNotDefined-path20" stroke="none" fill="rgb(34, 11, 91)" d="M 12.42,9.64 C 12.45,9.46 12.46,9.1 12.51,7.9 12.53,7.17 12.56,6.55 12.58,6.52 12.59,6.48 12.6,6.18 12.6,5.85 L 12.6,5.25 12.11,5.23 C 11.84,5.21 11.61,5.2 11.6,5.21 11.59,5.22 11.59,6.19 11.6,7.37 11.62,9.05 11.65,9.51 11.72,9.55 11.83,9.6 12.21,9.69 12.33,9.7 12.37,9.7 12.42,9.68 12.42,9.64 Z M 12.42,9.64" />
            <path id="medicationTypeNotDefined-path26" stroke="none" fill="rgb(34, 11, 91)" d="M 17.94,5.61 C 18.11,5.55 18.08,5.47 17.8,5.31 17.67,5.24 17.4,4.96 17.22,4.7 16.92,4.27 16.85,4.22 16.65,4.23 16.15,4.23 16.13,4.53 16.6,5 16.96,5.35 17.23,5.52 17.59,5.6 17.71,5.62 17.81,5.65 17.82,5.65 17.82,5.66 17.88,5.64 17.94,5.61 Z M 17.94,5.61" />
            <path id="medicationTypeNotDefined-path28" stroke="none" fill="rgb(34, 11, 91)" d="M 19.61,5.35 C 19.61,5.31 19.52,5.23 19.41,5.17 18.9,4.88 18.54,4.63 18.27,4.38 17.68,3.82 17.7,3.83 17.46,3.98 17.34,4.05 17.24,4.16 17.25,4.22 17.25,4.4 18.07,5.09 18.49,5.26 18.88,5.43 19.61,5.48 19.61,5.35 Z M 19.61,5.35" />
            <path id="medicationTypeNotDefined-path30" stroke="none" fill="rgb(34, 11, 91)" d="M 15.71,3.96 C 15.73,3.96 15.99,3.95 16.28,3.93 16.77,3.91 16.86,3.89 17.13,3.69 17.6,3.34 17.85,2.75 17.72,2.27 17.66,2.03 17.9,2.18 18.01,2.45 18.13,2.74 18.7,3.22 19.88,4.01 20.84,4.65 22,4.9 22.48,4.57 22.75,4.4 22.72,4.29 22.4,4.2 21.71,4.01 20.36,3.25 18.88,2.2 16.97,0.84 16.31,0.59 15.24,0.83 15.01,0.88 14.58,1.28 14.48,1.54 14.28,2.03 14.42,2.59 14.85,3 L 15.12,3.26 14.99,3.99 C 14.99,3.99 15.7,3.96 15.71,3.96 Z M 15.71,3.96" />
            <path id="medicationTypeNotDefined-path31" stroke="none" fill="rgb(34, 11, 91)" d="M 20.77,5.15 C 20.89,5.1 20.93,4.91 20.82,4.91 20.68,4.91 19.25,3.97 18.73,3.54 18.18,3.07 18.05,3.01 17.98,3.2 17.88,3.48 17.95,3.66 18.33,4.01 19.19,4.83 20.3,5.34 20.77,5.15 Z M 20.77,5.15" />
            <path id="medicationTypeNotDefined-path21" stroke="none" fill="rgb(34, 11, 91)" d="M 6.22,5.61 C 6.05,5.55 6.09,5.47 6.36,5.31 6.5,5.24 6.76,4.96 6.95,4.7 7.25,4.27 7.31,4.22 7.51,4.23 8.01,4.23 8.03,4.53 7.56,5 7.21,5.35 6.94,5.52 6.57,5.6 6.46,5.62 6.35,5.65 6.35,5.65 6.34,5.66 6.28,5.64 6.22,5.61 Z M 6.22,5.61" />
            <path id="medicationTypeNotDefined-path22" stroke="none" fill="rgb(34, 11, 91)" d="M 4.55,5.35 C 4.55,5.31 4.64,5.23 4.75,5.17 5.26,4.88 5.62,4.63 5.89,4.38 6.49,3.82 6.46,3.83 6.71,3.98 6.82,4.05 6.92,4.16 6.92,4.22 6.92,4.4 6.09,5.09 5.68,5.26 5.29,5.43 4.55,5.48 4.55,5.35 Z M 4.55,5.35" />
            <path id="medicationTypeNotDefined-path23" stroke="none" fill="rgb(34, 11, 91)" d="M 8.45,3.96 C 8.44,3.96 8.18,3.95 7.88,3.93 7.4,3.91 7.3,3.89 7.03,3.69 6.56,3.34 6.32,2.75 6.44,2.27 6.5,2.03 6.27,2.18 6.15,2.45 6.03,2.74 5.46,3.22 4.28,4.01 3.33,4.65 2.17,4.9 1.68,4.57 1.42,4.4 1.44,4.29 1.76,4.2 2.46,4.01 3.8,3.25 5.28,2.2 7.19,0.84 7.85,0.59 8.93,0.83 9.15,0.88 9.58,1.28 9.69,1.54 9.89,2.03 9.74,2.59 9.31,3 L 9.04,3.26 9.17,3.99 C 9.17,3.99 8.47,3.96 8.45,3.96 Z M 8.45,3.96" />
            <path id="medicationTypeNotDefined-path24" stroke="none" fill="rgb(34, 11, 91)" d="M 3.39,5.15 C 3.27,5.1 3.24,4.91 3.35,4.91 3.49,4.91 4.92,3.97 5.43,3.54 5.98,3.07 6.12,3.01 6.19,3.2 6.29,3.48 6.21,3.66 5.84,4.01 4.97,4.83 3.87,5.34 3.39,5.15 Z M 3.39,5.15" />
        </g>
    </g>
</svg>
